<svg width="27" height="27" viewBox="0 0 27 27" fill="none" xmlns="http://www.w3.org/2000/svg">
<path d="M8.8125 21.6875C10.3958 22.5208 11.8958 22.9375 13.3125 22.9375C14.7292 22.9375 16.2083 22.5208 17.75 21.6875C19.3333 20.8542 20.5208 19.8333 21.3125 18.625C21.2708 17.4583 20.3333 16.4792 18.5 15.6875C16.6667 14.8958 14.9375 14.5 13.3125 14.5C11.6875 14.5 9.95833 14.8958 8.125 15.6875C6.29167 16.4375 5.35417 17.4167 5.3125 18.625C6.10417 19.8333 7.27083 20.8542 8.8125 21.6875ZM16.125 5.1875C15.3333 4.39583 14.3958 4 13.3125 4C12.2292 4 11.2917 4.39583 10.5 5.1875C9.70833 5.97917 9.3125 6.91667 9.3125 8C9.3125 9.08333 9.70833 10.0208 10.5 10.8125C11.2917 11.6042 12.2292 12 13.3125 12C14.3958 12 15.3333 11.6042 16.125 10.8125C16.9167 10.0208 17.3125 9.08333 17.3125 8C17.3125 6.91667 16.9167 5.97917 16.125 5.1875ZM3.875 3.9375C6.5 1.3125 9.64583 0 13.3125 0C16.9792 0 20.1042 1.3125 22.6875 3.9375C25.3125 6.52083 26.625 9.64583 26.625 13.3125C26.625 16.9792 25.3125 20.125 22.6875 22.75C20.1042 25.3333 16.9792 26.625 13.3125 26.625C9.64583 26.625 6.5 25.3333 3.875 22.75C1.29167 20.125 0 16.9792 0 13.3125C0 9.64583 1.29167 6.52083 3.875 3.9375Z" fill="#888888"/>
</svg>
