<svg width="128" height="40" viewBox="0 0 128 40" fill="none" xmlns="http://www.w3.org/2000/svg">
<g clip-path="url(#clip0_11004_1397)">
<path d="M15.0742 21.4994L12.1985 20.1955L12.2093 19.1705C12.2093 18.4787 11.6009 17.8884 10.3839 17.4067C9.54002 17.0734 8.61644 16.9105 7.60956 16.9105C6.60268 16.9105 5.6791 17.0771 4.83521 17.4067C3.61825 17.8992 3.00978 18.486 3.00978 19.1705V32.5859C3.00978 33.2777 3.61825 33.8681 4.83521 34.3498C5.6791 34.683 6.60268 34.846 7.60956 34.846C8.61644 34.846 9.54002 34.6794 10.3839 34.3498C11.6009 33.8572 12.2093 33.2705 12.2093 32.5859V28.9677H12.3615L15.2264 30.3259V32.5859C15.2264 34.4259 14.0855 35.8167 11.8037 36.762C10.5288 37.2944 9.13075 37.5624 7.61318 37.5624C6.09562 37.5624 4.69757 37.2944 3.42267 36.762C1.14089 35.813 0 34.4222 0 32.5823V19.1669C0 17.327 1.14089 15.9362 3.42267 14.9909C4.69757 14.4584 6.09562 14.1904 7.61318 14.1904C9.13075 14.1904 10.5288 14.4584 11.8037 14.9909C14.0855 15.9362 15.2264 17.327 15.2264 19.1669V21.4994H15.0742Z" fill="#81FE88"/>
<path d="M15.2228 30.3223C15.2228 30.3223 12.6259 29.1995 12.1985 27.9102L12.2094 29.4748L15.2228 30.3223Z" fill="#81FE88"/>
<path d="M12.155 22.1043L15.0308 23.4082L15.0199 24.4332C15.0199 25.125 15.6284 25.7153 16.8453 26.197C17.6892 26.5303 18.6128 26.6932 19.6197 26.6932C20.623 26.6932 21.5502 26.5266 22.3941 26.197C23.611 25.7045 24.2195 25.1177 24.2195 24.4332V11.0214C24.2195 10.3296 23.611 9.73924 22.3941 9.25753C21.5502 8.92431 20.6266 8.76133 19.6197 8.76133C18.6164 8.76133 17.6892 8.92793 16.8453 9.25753C15.6284 9.7501 15.0199 10.3368 15.0199 11.0214V14.6396H14.8678L12.0029 13.2814V11.0214C12.0029 9.18147 13.1438 7.79067 15.4256 6.84536C16.7005 6.31294 18.0985 6.04492 19.6161 6.04492C21.1336 6.04492 22.5317 6.31294 23.8066 6.84536C26.0884 7.79067 27.2293 9.18147 27.2293 11.0214V24.4368C27.2293 26.2767 26.0884 27.6675 23.8066 28.6128C22.5317 29.1452 21.1336 29.4133 19.6161 29.4133C18.0985 29.4133 16.7005 29.1452 15.4256 28.6128C13.1438 27.6675 12.0029 26.2767 12.0029 24.4368V22.1043H12.155Z" fill="#81FE88"/>
<path d="M12.0065 13.2812C12.0065 13.2812 14.6034 14.404 15.0308 15.6934L15.0199 14.1288L12.0065 13.2812Z" fill="#81FE88"/>
<path d="M44.7773 31.8432V34.6176C44.7773 35.7367 43.9841 36.6132 42.3977 37.2398C41.5393 37.5694 40.5723 37.736 39.4929 37.736C38.4136 37.736 37.4466 37.5694 36.5882 37.2398C35.0018 36.6132 34.2086 35.7367 34.2086 34.6176V26.3416C34.2086 25.2224 35.0018 24.3459 36.5882 23.7193C37.4466 23.3897 38.4136 23.2231 39.4929 23.2231C40.5723 23.2231 41.5393 23.3897 42.3977 23.7193C43.9841 24.3459 44.7773 25.2224 44.7773 26.3416V27.9714L42.3578 29.1159H42.2311V26.7871C42.2311 26.3633 41.9667 26.0446 41.4343 25.8309C40.9055 25.6172 40.2572 25.5122 39.4929 25.5122C38.7287 25.5122 38.0804 25.6172 37.5516 25.8309C37.0228 26.0446 36.7548 26.3597 36.7548 26.7871V34.1721C36.7548 34.5958 37.0192 34.9146 37.5516 35.1283C38.0804 35.3419 38.7287 35.447 39.4929 35.447C40.2572 35.447 40.9055 35.3419 41.4343 35.1283C41.9631 34.9146 42.2311 34.5995 42.2311 34.1721V32.9877L44.6505 31.8432H44.7773Z" fill="#E1E1E1"/>
<path d="M48.468 34.6176V26.3416C48.468 25.2224 49.2611 24.3459 50.8475 23.7193C51.7059 23.3897 52.673 23.2231 53.7523 23.2231C54.8316 23.2231 55.7986 23.3897 56.657 23.7193C58.2434 24.3459 59.0366 25.2224 59.0366 26.3416V34.6176C59.0366 35.7367 58.2434 36.6132 56.657 37.2398C55.7986 37.5694 54.8316 37.736 53.7523 37.736C52.673 37.736 51.7059 37.5694 50.8475 37.2398C49.2611 36.6132 48.468 35.7367 48.468 34.6176ZM51.0141 34.1721C51.0141 34.5958 51.2785 34.9146 51.8109 35.1283C52.3434 35.3419 52.9881 35.447 53.7523 35.447C54.5165 35.447 55.1648 35.3419 55.6936 35.1283C56.2224 34.9146 56.4904 34.5995 56.4904 34.1721V26.7871C56.4904 26.3633 56.226 26.0446 55.6936 25.8309C55.1612 25.6172 54.5165 25.5122 53.7523 25.5122C52.9881 25.5122 52.3397 25.6172 51.8109 25.8309C51.2822 26.0446 51.0141 26.3597 51.0141 26.7871V34.1721Z" fill="#E1E1E1"/>
<path d="M62.7237 37.9932V26.3416C62.7237 25.2043 63.5169 24.3314 65.1032 23.7193C65.9616 23.3897 66.9287 23.2231 68.008 23.2231C69.0873 23.2231 70.0543 23.3897 70.9127 23.7193C72.4991 24.3314 73.2923 25.2043 73.2923 26.3416V36.845L70.8729 36.903H70.7461V26.7834C70.7461 26.3597 70.4817 26.041 69.9493 25.8273C69.4205 25.6136 68.7722 25.5085 68.008 25.5085C67.2438 25.5085 66.5955 25.6136 66.0667 25.8273C65.5379 26.041 65.2698 26.3561 65.2698 26.7834V36.8414L62.8504 37.9859H62.7237V37.9932Z" fill="#E1E1E1"/>
<path d="M76.983 37.9932V26.3416C76.983 25.2043 77.7762 24.3314 79.3625 23.7193C80.2209 23.3897 81.188 23.2231 82.2673 23.2231C83.3466 23.2231 84.3137 23.3897 85.172 23.7193C86.7584 24.3314 87.5516 25.2043 87.5516 26.3416V36.845L85.1322 37.9895H85.0054V26.7834C85.0054 26.3597 84.741 26.041 84.2086 25.8273C83.6798 25.6136 83.0315 25.5085 82.2673 25.5085C81.5031 25.5085 80.8548 25.6136 80.326 25.8273C79.7972 26.041 79.5292 26.3561 79.5292 26.7834V36.8414L77.1097 37.9859H76.983V37.9932Z" fill="#E1E1E1"/>
<path d="M101.811 31.8432V34.6176C101.811 35.7367 101.018 36.6132 99.4314 37.2398C98.573 37.5694 97.6059 37.736 96.5266 37.736C95.4473 37.736 94.4803 37.5694 93.6219 37.2398C92.0355 36.6132 91.2423 35.7367 91.2423 34.6176V26.3416C91.2423 25.2224 92.0355 24.3459 93.6219 23.7193C94.4803 23.3897 95.4473 23.2231 96.5266 23.2231C97.6059 23.2231 98.573 23.3897 99.4314 23.7193C101.018 24.3459 101.811 25.2224 101.811 26.3416V27.9714L93.7885 34.1395C93.7885 34.5741 94.0529 34.9001 94.5853 35.1174C95.1141 35.3347 95.7624 35.4434 96.5266 35.4434C97.2908 35.4434 97.9392 35.3383 98.4679 35.1246C98.9967 34.9109 99.2648 34.5958 99.2648 34.1685V32.9841L101.684 31.8396H101.811V31.8432ZM93.7885 31.4883L99.2648 27.2869V26.9573C99.2648 26.4756 99.0004 26.117 98.4679 25.878C97.9355 25.6389 97.2908 25.5194 96.5266 25.5194C95.7624 25.5194 95.1141 25.6244 94.5853 25.8381C94.0565 26.0518 93.7885 26.3669 93.7885 26.7943V31.4919V31.4883Z" fill="#E1E1E1"/>
<path d="M116.067 31.8432V34.6176C116.067 35.7367 115.273 36.6132 113.687 37.2398C112.829 37.5694 111.862 37.736 110.782 37.736C109.703 37.736 108.736 37.5694 107.878 37.2398C106.291 36.6132 105.498 35.7367 105.498 34.6176V26.3416C105.498 25.2224 106.291 24.3459 107.878 23.7193C108.736 23.3897 109.703 23.2231 110.782 23.2231C111.862 23.2231 112.829 23.3897 113.687 23.7193C115.273 24.3459 116.067 25.2224 116.067 26.3416V27.9714L113.647 29.1159H113.52V26.7871C113.52 26.3633 113.256 26.0446 112.724 25.8309C112.191 25.6172 111.547 25.5122 110.782 25.5122C110.018 25.5122 109.37 25.6172 108.841 25.8309C108.312 26.0446 108.044 26.3597 108.044 26.7871V34.1721C108.044 34.5958 108.309 34.9146 108.841 35.1283C109.373 35.3419 110.018 35.447 110.782 35.447C111.547 35.447 112.195 35.3419 112.724 35.1283C113.252 34.9146 113.52 34.5995 113.52 34.1721V32.9877L115.94 31.8432H116.067Z" fill="#E1E1E1"/>
<path d="M121.438 37.9934V25.7949H118.164V25.6681L119.196 23.4769H121.438V18.8916L123.857 17.7471H123.984V23.4769H127.258V23.6036L126.226 25.7949H123.984V36.8488L121.565 37.9934H121.438Z" fill="#E1E1E1"/>
<path d="M44.7736 14.0961V16.8705C44.7736 17.9897 43.9804 18.8662 42.394 19.4927C41.5357 19.8223 40.5686 19.9889 39.4893 19.9889C38.41 19.9889 37.4429 19.8223 36.5846 19.4927C34.9982 18.8662 34.205 17.9897 34.205 16.8705V8.59451C34.205 7.47535 34.9982 6.59886 36.5846 5.97227C37.4429 5.64268 38.41 5.47607 39.4893 5.47607C40.5686 5.47607 41.5357 5.64268 42.394 5.97227C43.9804 6.59886 44.7736 7.47535 44.7736 8.59451V10.2244L42.3542 11.3689H42.2274V9.04C42.2274 8.61624 41.963 8.29752 41.4306 8.08383C40.9018 7.87013 40.2535 7.7651 39.4893 7.7651C38.7251 7.7651 38.0768 7.87013 37.548 8.08383C37.0192 8.29752 36.7512 8.61262 36.7512 9.04V16.425C36.7512 16.8488 37.0156 17.1675 37.548 17.3812C38.0768 17.5949 38.7251 17.6999 39.4893 17.6999C40.2535 17.6999 40.9018 17.5949 41.4306 17.3812C41.9594 17.1675 42.2274 16.8524 42.2274 16.425V15.2407L44.6469 14.0961H44.7736Z" fill="#888888"/>
<path d="M48.4643 16.8705V8.59451C48.4643 7.47535 49.2575 6.59886 50.8439 5.97227C51.7023 5.64268 52.6693 5.47607 53.7486 5.47607C54.828 5.47607 55.795 5.64268 56.6534 5.97227C58.2398 6.59886 59.033 7.47535 59.033 8.59451V16.8705C59.033 17.9897 58.2398 18.8662 56.6534 19.4927C55.795 19.8223 54.828 19.9889 53.7486 19.9889C52.6693 19.9889 51.7023 19.8223 50.8439 19.4927C49.2575 18.8662 48.4643 17.9897 48.4643 16.8705ZM51.0105 16.425C51.0105 16.8488 51.2749 17.1675 51.8073 17.3812C52.3397 17.5949 52.9844 17.6999 53.7486 17.6999C54.5129 17.6999 55.1612 17.5949 55.69 17.3812C56.2188 17.1675 56.4868 16.8524 56.4868 16.425V9.04C56.4868 8.61624 56.2224 8.29752 55.69 8.08383C55.1576 7.87013 54.5129 7.7651 53.7486 7.7651C52.9844 7.7651 52.3361 7.87013 51.8073 8.08383C51.2785 8.29752 51.0105 8.61262 51.0105 9.04V16.425Z" fill="#888888"/>
<path d="M62.72 16.8707V8.59471C62.72 7.45744 63.5132 6.58457 65.0996 5.97247C65.958 5.64288 66.925 5.47628 68.0043 5.47628C69.0148 5.47628 69.9275 5.62115 70.7425 5.9109V1.14451L73.1619 0H73.2886V16.8707C73.2886 18.008 72.4954 18.8808 70.9091 19.4929C70.0507 19.8225 69.0836 19.9891 68.0043 19.9891C66.925 19.9891 65.958 19.8225 65.0996 19.4929C63.5132 18.8664 62.72 17.9899 62.72 16.8707ZM65.2662 16.4252C65.2662 16.849 65.5306 17.1677 66.063 17.3814C66.5918 17.5951 67.2401 17.7001 68.0043 17.7001C68.7685 17.7001 69.4168 17.5951 69.9456 17.3814C70.4744 17.1677 70.7425 16.8526 70.7425 16.4252V9.0402C70.7425 8.61644 70.4781 8.29772 69.9456 8.08403C69.4168 7.87034 68.7685 7.7653 68.0043 7.7653C67.2401 7.7653 66.5918 7.87034 66.063 8.08403C65.5342 8.29772 65.2662 8.61282 65.2662 9.0402V16.4252Z" fill="#888888"/>
<path d="M88.1854 14.0961V16.8705C88.1854 17.9897 87.3922 18.8662 85.8059 19.4927C84.9475 19.8223 83.9804 19.9889 82.9011 19.9889C81.8218 19.9889 80.8547 19.8223 79.9964 19.4927C78.41 18.8662 77.6168 17.9897 77.6168 16.8705V8.59451C77.6168 7.47535 78.41 6.59886 79.9964 5.97227C80.8547 5.64268 81.8218 5.47607 82.9011 5.47607C83.9804 5.47607 84.9475 5.64268 85.8059 5.97227C87.3922 6.59886 88.1854 7.47535 88.1854 8.59451V10.2244L80.163 16.3924C80.163 16.827 80.4274 17.153 80.9598 17.3703C81.4886 17.5876 82.1369 17.6963 82.9011 17.6963C83.6653 17.6963 84.3136 17.5913 84.8424 17.3776C85.3712 17.1639 85.6392 16.8488 85.6392 16.4214V15.237L88.0587 14.0925H88.1854V14.0961ZM80.163 13.7412L85.6392 9.53982V9.21023C85.6392 8.72852 85.3748 8.36995 84.8424 8.13091C84.3136 7.89187 83.6653 7.77234 82.9011 7.77234C82.1369 7.77234 81.4886 7.87738 80.9598 8.09107C80.431 8.30476 80.163 8.61986 80.163 9.04724V13.7448V13.7412Z" fill="#888888"/>
<path d="M76.9902 36.2656V36.559C76.9902 38.2323 73.2705 38.0693 73.2705 36.559V36.2656H70.7316V37.0045C70.7316 38.1381 71.5248 39.011 73.1076 39.6195C74.4151 40.1229 75.8384 40.1265 77.1568 39.6195C78.7396 39.011 79.5291 38.1381 79.5291 37.0045V36.2656H76.9902Z" fill="#81FE88"/>
</g>
<defs>
<clipPath id="clip0_11004_1397">
<rect width="127.258" height="40" fill="white"/>
</clipPath>
</defs>
</svg>
