<svg width="20" height="20" viewBox="0 0 20 20" fill="none" xmlns="http://www.w3.org/2000/svg">
<path d="M15.9844 6V3.98438H3.98438V6H15.9844ZM12 12V9.98438H3.98438V12H12ZM3.98438 6.98438V9H15.9844V6.98438H3.98438ZM18 0C18.5312 0 18.9844 0.203125 19.3594 0.609375C19.7656 0.984375 19.9688 1.4375 19.9688 1.96875V13.9688C19.9688 14.5 19.7656 14.9688 19.3594 15.375C18.9844 15.7812 18.5312 15.9844 18 15.9844H3.98438L0 19.9688V1.96875C0 1.4375 0.1875 0.984375 0.5625 0.609375C0.96875 0.203125 1.4375 0 1.96875 0H18Z" fill="#888888"/>
</svg>
